<mxfile host="app.diagrams.net" modified="2024-01-15T21:30:02.559Z" agent="Mozilla/5.0 (Windows NT 10.0; Win64; x64) AppleWebKit/537.36 (KHTML, like Gecko) Chrome/120.0.0.0 Safari/537.36" version="22.1.18" etag="WOZfFAjRJMwMhJWJALS2" type="github">
  <diagram name="PÃ¡gina-1" id="td5Do04nYb5NqylNVksQ">
    <mxGraphModel>
      <root>
        <mxCell id="0" />
        <mxCell id="1" parent="0" />
      </root>
    </mxGraphModel>
  </diagram>
</mxfile>
